<svg xmlns="http://www.w3.org/2000/svg" xmlns:xlink="http://www.w3.org/1999/xlink" version="1.1" x="0px" y="0px" viewBox="0 0 100 125" enable-background="new 0 0 100 100" xml:space="preserve"><path fill="#FFFFFF" d="M22.802,46.56c-0.34,0.34-0.53,0.81-0.53,1.28c0,0.489,0.19,0.939,0.53,1.279s0.8,0.53,1.279,0.53  c0.48,0,0.94-0.19,1.28-0.53c0.341-0.34,0.53-0.79,0.53-1.279c0-0.471-0.2-0.94-0.53-1.28C24.682,45.889,23.472,45.889,22.802,46.56  z M78.266,38.803c-0.001,0-0.001,0-0.002,0H54.151l2.919-5.285c1.596-2.891,1.254-6.019-0.893-8.164  c-1.145-1.145-2.666-1.774-4.284-1.774s-3.14,0.631-4.236,1.73l-14.75,13.748c-0.27,0.269-0.508,0.56-0.762,0.84H20.862  c-0.639,0-1.23,0.337-1.556,0.888c-7.995,13.515-0.33,26.783,0,27.341c0.325,0.549,0.917,0.887,1.556,0.887h11.136  c4.014,4.537,9.874,7.406,16.394,7.406h9.443c3.341,0,6.058-2.717,6.058-6.059c0-0.941-0.222-1.83-0.606-2.625  c2.641-0.652,4.606-3.035,4.606-5.875c0-1.213-0.362-2.342-0.979-3.291c1.78-1.057,2.979-2.992,2.979-5.209  c0-0.869-0.188-1.693-0.519-2.441h8.89c0.001,0,0.001,0,0.002,0c3.34-0.002,6.056-2.719,6.056-6.058  C84.321,41.522,81.605,38.805,78.266,38.803z M29.402,65.398h-7.443c-1.388-2.881-5.132-12.334-0.039-21.884h7.575  c-1.938,3.312-2.994,7.08-2.994,11.015C26.501,58.484,27.561,62.193,29.402,65.398z M78.262,47.304H56.085  c-0.998,0-1.808,0.81-1.808,1.808c0,0.999,0.81,1.808,1.808,1.808h7.75c1.347,0,2.442,1.096,2.442,2.441  c0,1.348-1.096,2.443-2.442,2.443h-8.75c-0.998,0-1.808,0.809-1.808,1.807s0.81,1.809,1.808,1.809h6.75  c1.347,0,2.442,1.096,2.442,2.441c0,1.348-1.096,2.443-2.442,2.443h-7.75c-0.998,0-1.808,0.809-1.808,1.807s0.81,1.809,1.808,1.809  h3.75c1.347,0,2.442,1.096,2.442,2.441c0,1.348-1.096,2.443-2.442,2.443h-9.443c-5.646,0-10.699-2.576-14.055-6.611  c-0.022-0.035-0.053-0.062-0.078-0.096c-2.586-3.154-4.141-7.182-4.141-11.568c0-4.876,1.898-9.462,5.348-12.916l14.7-13.703  c0.924-0.922,2.531-0.923,3.455,0.001c1.404,1.403,0.666,3.166,0.283,3.858l-3.884,7.033h-2.596c-0.998,0-1.809,0.81-1.809,1.809  c0,0.998,0.811,1.808,1.809,1.808h3.627c0.011,0,0.021,0.004,0.031,0.004c0.01,0,0.02-0.004,0.029-0.004h27.149  c1.348,0,2.444,1.095,2.444,2.442C80.706,46.208,79.609,47.304,78.262,47.304z"/><text x="0" y="115" fill="#FFFFFF" font-size="5px" font-weight="bold" font-family="'Helvetica Neue', Helvetica, Arial-Unicode, Arial, Sans-serif"></text><text x="0" y="120" fill="#FFF" font-size="5px" font-weight="bold" font-family="'Helvetica Neue', Helvetica, Arial-Unicode, Arial, Sans-serif"></text></svg>